<svg height='100px' width='100px'  fill="#b81616" xmlns="http://www.w3.org/2000/svg" xmlns:xlink="http://www.w3.org/1999/xlink" version="1.1" x="0px" y="0px" viewBox="0 0 33 33" enable-background="new 0 0 33 33" xml:space="preserve"><polygon points="25.414,18.941 20.721,18.941 20.721,23.58 15.064,23.58 15.064,18.941 10.371,18.941 10.371,13.506 15.064,13.506   15.064,8.895 20.721,8.895 20.721,13.506 25.414,13.506 "></polygon><path d="M2.301,6.75c-1.488,0.875-2.691,6.635-0.914,13.596c1.777,6.957,5.601,11.434,7.325,11.486  c3.524,0.107,5.229-1.471,4.937-2.619c-0.498-1.945-0.65-2.535-1.414-5.521c-0.235-0.936-2.107-1.141-3.589-0.65  c-1.052,0.348-2.587-1.818-3.083-3.766c-0.5-1.943-0.193-4.58,0.899-4.781c1.534-0.283,3.075-1.359,2.838-2.295  C8.534,9.213,8.385,8.623,7.887,6.682C7.593,5.531,5.34,4.965,2.301,6.75z"></path><path d="M17.424,1.162c-3.27,0-6.29,1.057-8.763,2.832c0.275,1.074,0.48,1.877,0.775,3.031c2.144-1.863,4.933-2.998,7.987-2.998  c6.732,0,12.211,5.477,12.211,12.209c0,6.734-5.479,12.211-12.211,12.211c-0.887,0-1.75-0.102-2.584-0.281  c0.295,1.152,0.5,1.955,0.775,3.027c0.594,0.072,1.195,0.119,1.809,0.119c8.313,0,15.076-6.764,15.076-15.076  S25.736,1.162,17.424,1.162z"></path></svg>