<svg xmlns:dc="http://purl.org/dc/elements/1.1/" xmlns:cc="http://creativecommons.org/ns#" xmlns:rdf="http://www.w3.org/1999/02/22-rdf-syntax-ns#" xmlns:svg="http://www.w3.org/2000/svg" xmlns="http://www.w3.org/2000/svg" xmlns:sodipodi="http://sodipodi.sourceforge.net/DTD/sodipodi-0.dtd" xmlns:inkscape="http://www.inkscape.org/namespaces/inkscape" viewBox="0 0 24 30" version="1.1" x="0px" y="0px"><path style="color:#000000;font-style:normal;font-variant:normal;font-weight:normal;font-stretch:normal;font-size:medium;line-height:normal;font-family:sans-serif;text-indent:0;text-align:start;text-decoration:none;text-decoration-line:none;text-decoration-style:solid;text-decoration-color:#000000;letter-spacing:normal;word-spacing:normal;text-transform:none;direction:ltr;block-progression:tb;writing-mode:lr-tb;baseline-shift:baseline;text-anchor:start;white-space:normal;clip-rule:nonzero;display:inline;overflow:visible;visibility:visible;opacity:1;isolation:auto;mix-blend-mode:normal;color-interpolation:sRGB;color-interpolation-filters:linearRGB;solid-color:#000000;solid-opacity:1;fill:#000000;fill-opacity:1;fill-rule:nonzero;stroke:none;stroke-width:2.00000024;stroke-linecap:round;stroke-linejoin:round;stroke-miterlimit:4;stroke-dasharray:none;stroke-dashoffset:0;stroke-opacity:1;color-rendering:auto;image-rendering:auto;shape-rendering:auto;text-rendering:auto;enable-background:accumulate" d="m 11.984382,-0.00781166 a 1.0001,1.0001 0 0 0 -0.98438,1.01562396 l 0,3 a 1.0001,1.0001 0 1 0 2,0 l 0,-3 a 1.0001,1.0001 0 0 0 -1.01562,-1.01562396 z M 4.2168025,3.2167973 a 1.0001,1.0001 0 0 0 -0.69727,1.716797 l 2.12109,2.121094 a 1.0001,1.0001 0 1 0 1.41407,-1.414063 l -2.1211,-2.121094 a 1.0001,1.0001 0 0 0 -0.71679,-0.302734 z m 15.5371095,0 a 1.0001,1.0001 0 0 0 -0.6875,0.302734 l -2.1211,2.121094 a 1.0001,1.0001 0 1 0 1.41407,1.414063 l 2.12109,-2.121094 a 1.0001,1.0001 0 0 0 -0.72656,-1.716797 z m -7.75391,2.791015 c -3.3018595,0 -5.9999995,2.698137 -5.9999995,5.9999997 0,3.301865 2.69814,6 5.9999995,6 3.30186,0 6,-2.698135 6,-6 0,-3.3018627 -2.69814,-5.9999977 -6,-5.9999997 z m 0,2 c 2.22098,0 4,1.779017 4,3.9999997 0,2.220985 -1.77902,4.000002 -4,4 -2.2209795,0 -3.9999995,-1.779015 -3.9999995,-4 0,-2.2209827 1.77902,-3.9999987 3.9999995,-3.9999997 z M 1.0078125,11 a 1.0001,1.0001 0 1 0 0,2 l 3,0 a 1.0001,1.0001 0 1 0 0,-2 l -3,0 z m 18.9843795,0 a 1.0001,1.0001 0 1 0 0,2 l 3,0 a 1.0001,1.0001 0 1 0 0,-2 l -3,0 z M 6.3281225,16.642578 a 1.0001,1.0001 0 0 0 -0.6875,0.302734 l -2.12109,2.121094 a 1.0001,1.0001 0 1 0 1.41406,1.414063 l 2.1211,-2.121094 a 1.0001,1.0001 0 0 0 -0.72657,-1.716797 z m 11.3124995,0 a 1.0001,1.0001 0 0 0 -0.69531,1.716797 l 2.1211,2.121094 a 1.0001,1.0001 0 1 0 1.41406,-1.414063 l -2.12109,-2.121094 a 1.0001,1.0001 0 0 0 -0.71876,-0.302734 z m -5.65624,2.335938 a 1.0001,1.0001 0 0 0 -0.98438,1.013672 l 0,3 a 1.0001,1.0001 0 1 0 2,0 l 0,-3 a 1.0001,1.0001 0 0 0 -1.01562,-1.013672 z"/></svg>